<?xml version="1.0" standalone="no"?>
<!DOCTYPE svg PUBLIC "-//W3C//DTD SVG 20010904//EN"
 "http://www.w3.org/TR/2001/REC-SVG-20010904/DTD/svg10.dtd">
<svg version="1.0" xmlns="http://www.w3.org/2000/svg"
 width="300.000000pt" height="300.000000pt" viewBox="0 0 300.000000 300.000000"
 preserveAspectRatio="xMidYMid meet">
<metadata>
Created by potrace 1.14, written by Peter Selinger 2001-2017
</metadata>
<g transform="translate(0.000000,300.000000) scale(0.100000,-0.100000)"
fill="#000000" stroke="none">
<path d="M1780 2860 l0 -50 -95 0 -95 0 0 -45 0 -45 -45 0 -45 0 0 -45 0 -45
-45 0 -45 0 0 -95 0 -95 -95 0 -95 0 0 -50 0 -50 -140 0 -140 0 0 -45 0 -45
-50 0 -50 0 0 -45 0 -45 -45 0 -45 0 0 -50 0 -50 -45 0 -45 0 0 -90 0 -90 -50
0 -50 0 0 -95 0 -95 -45 0 -45 0 0 -330 0 -330 45 0 45 0 0 -95 0 -95 50 0 50
0 0 -90 0 -90 45 0 45 0 0 -50 0 -50 45 0 45 0 0 -45 0 -45 50 0 50 0 0 -45 0
-45 140 0 140 0 0 -50 0 -50 95 0 95 0 0 50 0 50 90 0 90 0 0 -50 0 -50 95 0
95 0 0 50 0 50 140 0 140 0 0 45 0 45 50 0 50 0 0 45 0 45 45 0 45 0 0 50 0
50 45 0 45 0 0 90 0 90 50 0 50 0 0 95 0 95 45 0 45 0 0 330 0 330 -45 0 -45
0 0 95 0 95 -50 0 -50 0 0 90 0 90 -45 0 -45 0 0 50 0 50 -45 0 -45 0 0 45 0
45 -50 0 -50 0 0 45 0 45 -140 0 -140 0 0 50 0 50 95 0 95 0 0 45 0 45 325 0
325 0 0 95 0 95 -45 0 -45 0 0 45 0 45 -95 0 -95 0 0 50 0 50 -280 0 -280 0 0
-50z m470 -95 l0 -45 140 0 140 0 0 -45 0 -45 -280 0 -280 0 0 -50 0 -50 -140
0 -140 0 0 -45 0 -45 -50 0 -50 0 0 -95 0 -95 -45 0 -45 0 0 190 0 190 45 0
45 0 0 45 0 45 95 0 95 0 0 45 0 45 235 0 235 0 0 -45z m-1030 -655 l0 -50
-50 0 -50 0 0 -45 0 -45 -45 0 -45 0 0 -45 0 -45 -45 0 -45 0 0 90 0 90 45 0
45 0 0 50 0 50 95 0 95 0 0 -50z m-280 -425 l0 -95 -95 0 -95 0 0 -45 0 -45
-45 0 -45 0 0 45 0 45 45 0 45 0 0 50 0 50 45 0 45 0 0 45 0 45 50 0 50 0 0
-95z"/>
</g>
</svg>
